# xmcd
#
# Track frame offsets:
#	150
#	6755
#	24807
#	39577
#	58475
#	61770
#	82295
#	102925
#	105600
#	121655
#	139312
#	156267
#	176317
#
# Disc length: 2588 seconds
#
# Revision: 1
# Processed by: cddbd v1.5.1PL0 Copyright (c) Steve Scherf et al.
# Submitted via: CDex 1.50Beta5
#
DISCID=a50a1a0d
DTITLE=出口雅之 - EGOIST
DYEAR=1997
DGENRE=Rock
TTITLE0=EGOIST No9
TTITLE1=奇跡の風
TTITLE2=マシンガン
TTITLE3=COOOL
TTITLE4=あの男を追え
TTITLE5=RIVER
TTITLE6=バード
TTITLE7=CAR ACTION
TTITLE8=7 seven
TTITLE9=VELVET WITH BLUE
TTITLE10=我が青春のフェニックス
TTITLE11=PLEASURE SONG
TTITLE12=GOOD NIGHT
EXTD=
EXTT0=
EXTT1=
EXTT2=
EXTT3=
EXTT4=
EXTT5=
EXTT6=
EXTT7=
EXTT8=
EXTT9=
EXTT10=
EXTT11=
EXTT12=
PLAYORDER=
